<?xml version="1.0" standalone="no"?>
<!DOCTYPE svg PUBLIC "-//W3C//DTD SVG 20010904//EN"
 "http://www.w3.org/TR/2001/REC-SVG-20010904/DTD/svg10.dtd">
<svg version="1.0" xmlns="http://www.w3.org/2000/svg"
 width="512.000000pt" height="512.000000pt" viewBox="0 0 512.000000 512.000000"
 preserveAspectRatio="xMidYMid meet">

<g transform="translate(0.000000,512.000000) scale(0.100000,-0.100000)"
fill="#000000" stroke="none">
<path d="M1760 4547 c-49 -16 -133 -102 -148 -153 -17 -58 -17 -890 0 -948 16
-55 99 -138 154 -154 27 -8 117 -12 258 -12 l216 0 0 -40 0 -40 -95 0 c-88 0
-98 -2 -120 -25 -33 -32 -33 -78 0 -110 24 -25 24 -25 240 -25 l215 0 0 -109
0 -109 -34 -12 c-49 -16 -121 -83 -140 -130 l-16 -40 -321 0 c-223 0 -334 -4
-363 -12 -55 -16 -138 -99 -154 -154 -7 -26 -12 -108 -12 -218 l0 -176 -336 0
c-235 0 -349 -4 -378 -12 -55 -16 -138 -99 -154 -154 -17 -58 -17 -890 0 -948
16 -55 99 -138 154 -154 27 -8 117 -12 258 -12 l216 0 0 -40 0 -40 -95 0 c-88
0 -98 -2 -120 -25 -33 -32 -33 -78 0 -110 l24 -25 511 0 511 0 24 25 c33 32
33 78 0 110 -22 23 -32 25 -120 25 l-95 0 0 40 0 40 216 0 c141 0 231 4 258
12 55 16 138 99 154 154 17 58 17 890 0 948 -16 55 -99 138 -154 154 -29 8
-143 12 -378 12 l-336 0 0 175 c0 173 0 176 25 200 l24 25 321 0 320 0 16 -40
c9 -22 36 -58 61 -79 137 -121 367 -82 443 74 l22 45 319 0 320 0 24 -25 c25
-24 25 -27 25 -200 l0 -175 -336 0 c-235 0 -349 -4 -378 -12 -55 -16 -138 -99
-154 -154 -17 -58 -17 -890 0 -948 16 -55 99 -138 154 -154 27 -8 117 -12 258
-12 l216 0 0 -40 0 -40 -95 0 c-88 0 -98 -2 -120 -25 -33 -32 -33 -78 0 -110
l24 -25 511 0 511 0 24 25 c33 32 33 78 0 110 -22 23 -32 25 -120 25 l-95 0 0
40 0 40 216 0 c141 0 231 4 258 12 55 16 138 99 154 154 17 58 17 890 0 948
-16 55 -99 138 -154 154 -29 8 -143 12 -378 12 l-336 0 0 176 c0 110 -5 192
-12 218 -16 55 -99 138 -154 154 -29 8 -140 12 -363 12 l-321 0 -16 40 c-19
47 -91 114 -140 130 l-34 12 0 109 0 109 215 0 c216 0 216 0 240 25 33 32 33
78 0 110 -22 23 -32 25 -120 25 l-95 0 0 40 0 40 216 0 c141 0 231 4 258 12
55 16 138 99 154 154 17 58 17 890 0 948 -16 55 -99 138 -154 154 -56 16
-1542 15 -1594 -1z m1575 -172 l25 -24 0 -431 0 -431 -25 -24 -24 -25 -751 0
-751 0 -24 25 -25 24 0 431 0 431 25 24 24 25 751 0 751 0 24 -25z m-615
-1135 l0 -40 -160 0 -160 0 0 40 0 40 160 0 160 0 0 -40z m-74 -604 c28 -28
34 -42 34 -76 0 -34 -6 -48 -34 -76 -30 -30 -40 -34 -86 -34 -46 0 -56 4 -86
34 -28 28 -34 42 -34 76 0 34 6 48 34 76 30 30 40 34 86 34 46 0 56 -4 86 -34z
m-351 -741 l25 -24 0 -431 0 -431 -25 -24 -24 -25 -751 0 -751 0 -24 25 -25
24 0 431 0 431 25 24 24 25 751 0 751 0 24 -25z m2080 0 l25 -24 0 -431 0
-431 -25 -24 -24 -25 -751 0 -751 0 -24 25 -25 24 0 431 0 431 25 24 24 25
751 0 751 0 24 -25z m-2695 -1135 l0 -40 -160 0 -160 0 0 40 0 40 160 0 160 0
0 -40z m2080 0 l0 -40 -160 0 -160 0 0 40 0 40 160 0 160 0 0 -40z"/>
</g>
</svg>
